<svg width="50" height="50" viewBox="0 0 50 50" fill="none" xmlns="http://www.w3.org/2000/svg">
  <!-- Folder Icon -->
  <path d="M8 12C8 10.8954 8.89543 10 10 10H20L22 12H40C41.1046 12 42 12.8954 42 14V38C42 39.1046 41.1046 40 40 40H10C8.89543 40 8 39.1046 8 38V12Z" fill="currentColor"/>
  
  <!-- Document Icon -->
  <path d="M15 18H25V20H15V18Z" fill="white"/>
  <path d="M15 22H30V24H15V22Z" fill="white"/>
  
  <!-- Grid Icon -->
  <rect x="28" y="18" width="4" height="4" fill="white"/>
  <rect x="33" y="18" width="4" height="4" fill="white"/>
  <rect x="28" y="23" width="4" height="4" fill="white"/>
  <rect x="33" y="23" width="4" height="4" fill="white"/>
  
  <!-- Upload Arrow -->
  <path d="M20 32L25 27L30 32" stroke="white" stroke-width="2" fill="none"/>
  <path d="M25 27V35" stroke="white" stroke-width="2"/>
</svg>
